# xmcd
#
# Track frame offsets:
#	180
#	19589
#	43122
#	57916
#	76165
#	89917
#	116195
#	128750
#	147852
#	162037
#	183579
#	202633
#	221355
#	233391
#	252121
#	269320
#	285598
#
# Disc length: 3924 seconds
#
# Revision: 1
# Processed by: cddbd v1.5.2PL0 Copyright (c) Steve Scherf et al.
# Submitted via: audiograbber 1.83.01
#
DISCID=e40f5211
DTITLE=Blues - Georg Schroeter and Levke Serfling - Since I Fell For You (& Albie
DTITLE=Donelly)
DYEAR=1900
DGENRE=
TTITLE0=Who압 Who
TTITLE1=Our Blues
TTITLE2=Baby Won앖 You PLease Come Home
TTITLE3=Same Old Blues
TTITLE4=Sweet Lorraine
TTITLE5=After Hours
TTITLE6=Fly me To The Moon
TTITLE7=She압 Gone
TTITLE8=Nobody Knows The Trouble I았e Seen
TTITLE9=Blues For The Queen
TTITLE10=Georgia On My Mind
TTITLE11=Trouble In MInd
TTITLE12=He압 Got The Whole World In His Hand
TTITLE13=Lovers Dream
TTITLE14=Since I Fell For You
TTITLE15=Boogie With A FRiend
TTITLE16=Lift Every Voice
EXTD=
EXTT0=
EXTT1=
EXTT2=
EXTT3=
EXTT4=
EXTT5=
EXTT6=
EXTT7=
EXTT8=
EXTT9=
EXTT10=
EXTT11=
EXTT12=
EXTT13=
EXTT14=
EXTT15=
EXTT16=
PLAYORDER=
